<svg fill="none" viewBox="0 0 48 48" xmlns="http://www.w3.org/2000/svg"><path fill="#ffffff" fill-opacity=".01" d="M0 0h48v48H0z" class="fill-ffffff"></path><path clip-rule="evenodd" d="M24 12a4 4 0 1 0 0-8 4 4 0 0 0 0 8ZM24 28a4 4 0 1 0 0-8 4 4 0 0 0 0 8ZM34.393 18a4 4 0 1 0 6.928-4 4 4 0 0 0-6.928 4ZM34.393 30a4 4 0 1 0 6.928 4 4 4 0 0 0-6.928-4ZM24 36a4 4 0 1 0 0 8 4 4 0 0 0 0-8ZM13.608 30a4 4 0 1 0-6.928 4 4 4 0 0 0 6.928-4ZM13.608 18a4 4 0 1 0-6.928-4 4 4 0 0 0 6.928 4Z" fill="#000000" fill-rule="evenodd" stroke="#000000" stroke-linecap="round" stroke-linejoin="round" stroke-width="4" class="fill-2f88ff stroke-000000"></path></svg>